<svg xmlns="http://www.w3.org/2000/svg" viewBox="0 0 459.08 81.69"><defs><style>.cls-1{font-size:52px;font-family:Designio;letter-spacing:-0.02em;}.cls-1,.cls-2{fill:#fff;}</style></defs><title>Asset 1</title><g id="Layer_2" data-name="Layer 2"><g id="Layer_1-2" data-name="Layer 1"><text class="cls-1" transform="translate(215.78 59.44)">selvbetjening</text><path class="cls-2" d="M40.84,81.69A40.85,40.85,0,1,1,81.69,40.84,40.89,40.89,0,0,1,40.84,81.69Zm0-79A38.15,38.15,0,1,0,79,40.84,38.18,38.18,0,0,0,40.84,2.7Z"/><polygon class="cls-2" points="26.83 15.77 27.83 21.13 22.32 21.13 22.32 15.77 26.83 15.77"/><rect class="cls-2" x="22.32" y="27.4" width="5.51" height="32.11"/><path class="cls-2" d="M37.36,22.2h3.46L42,27.4h8.46V32h-7.6V50.43q0,4.49,3.78,4.49h3.82v4.59H45.22q-7.86,0-7.86-8.66Z"/><path class="cls-2" d="M63.27,22.2V59.51H57.76V22.2Z"/><path class="cls-2" d="M95,76.05a.26.26,0,0,1-.16-.31.24.24,0,0,1,.3-.16,2.67,2.67,0,0,0,2.16-.09.92.92,0,0,0,.35-.79c0-.82-.61-1.08-1.32-1.39s-1.41-.63-1.41-1.54a1.15,1.15,0,0,1,.39-.91,3.16,3.16,0,0,1,2.38-.31.24.24,0,0,1,.19.29.22.22,0,0,1-.27.19,2.72,2.72,0,0,0-2,.21.65.65,0,0,0-.21.53c0,.56.42.78,1.12,1.08s1.59.7,1.59,1.85a1.43,1.43,0,0,1-.52,1.18,2.2,2.2,0,0,1-1.32.38A4.17,4.17,0,0,1,95,76.05Z"/><path class="cls-2" d="M103.43,72.55v.69a.25.25,0,0,1-.24.25H99.81v.68a1.69,1.69,0,0,0,.34,1.17,1.73,1.73,0,0,0,1.32.42,3.59,3.59,0,0,0,1.36-.22.23.23,0,0,1,.31.13A.26.26,0,0,1,103,76a4.13,4.13,0,0,1-1.54.26,1.87,1.87,0,0,1-2.13-2.09V72.54A2.2,2.2,0,0,1,99.81,71a2.09,2.09,0,0,1,1.49-.58h0a1.87,1.87,0,0,1,2.13,2.1Zm-.47,0a1.72,1.72,0,0,0-.34-1.18,1.67,1.67,0,0,0-1.3-.43,1.62,1.62,0,0,0-1.17.43,1.69,1.69,0,0,0-.34,1.17V73H103Z"/><path class="cls-2" d="M107.72,70.71a.23.23,0,0,1-.24.23h-.14a3,3,0,0,0-1.51.34l-.13.06V76a.24.24,0,0,1-.23.25.25.25,0,0,1-.24-.25V70.69a.24.24,0,0,1,.24-.24.23.23,0,0,1,.23.24v.11a3.57,3.57,0,0,1,1.64-.35h.15A.23.23,0,0,1,107.72,70.71Z"/><path class="cls-2" d="M110.46,76.1l-1.91-5.31a.27.27,0,0,1,.14-.33.26.26,0,0,1,.31.14l1.69,4.71,1.69-4.71a.26.26,0,0,1,.31-.14.29.29,0,0,1,.14.33l-1.92,5.31a.25.25,0,0,1-.22.16A.26.26,0,0,1,110.46,76.1Z"/><path class="cls-2" d="M115,68.77a.36.36,0,0,1-.35.36.35.35,0,0,1-.33-.36.33.33,0,0,1,.33-.35A.35.35,0,0,1,115,68.77Zm-.11,1.92V76a.24.24,0,0,1-.24.25.24.24,0,0,1-.22-.25V70.69a.23.23,0,0,1,.22-.24A.24.24,0,0,1,114.84,70.69Z"/><path class="cls-2" d="M116.44,73.36c0-2.61,1.72-2.9,2.46-2.9a3.38,3.38,0,0,1,1.43.25.23.23,0,0,1,.12.32.23.23,0,0,1-.3.13,3.4,3.4,0,0,0-1.25-.2c-.74,0-2,.31-2,2.4s1.25,2.4,2,2.4a3.67,3.67,0,0,0,1.25-.2.22.22,0,0,1,.3.13.24.24,0,0,1-.12.32,3.81,3.81,0,0,1-1.43.25C118.16,76.26,116.44,76,116.44,73.36Z"/><path class="cls-2" d="M126.05,72.55v.69a.25.25,0,0,1-.24.25h-3.38v.68a1.69,1.69,0,0,0,.34,1.17,1.72,1.72,0,0,0,1.31.42,3.61,3.61,0,0,0,1.37-.22.23.23,0,0,1,.31.13.26.26,0,0,1-.13.33,4.19,4.19,0,0,1-1.55.26,2.1,2.1,0,0,1-1.65-.59,2.12,2.12,0,0,1-.47-1.5V72.54a2.2,2.2,0,0,1,.47-1.51,2.09,2.09,0,0,1,1.49-.58h0a1.87,1.87,0,0,1,2.13,2.1Zm-.47,0a1.77,1.77,0,0,0-.34-1.18,1.68,1.68,0,0,0-1.3-.43,1.62,1.62,0,0,0-1.17.43,1.69,1.69,0,0,0-.34,1.17V73h3.15Z"/><path class="cls-2" d="M135.37,70.79l-2.58,6.74c-.5,1.16-1.57,1.72-3.28,1.72a.24.24,0,0,1-.23-.25.23.23,0,0,1,.23-.23c2,0,2.58-.82,2.84-1.43l.56-1.45v0l-2-5.08a.25.25,0,0,1,.12-.32.22.22,0,0,1,.3.13l1.88,4.64,1.78-4.64a.23.23,0,0,1,.31-.13A.24.24,0,0,1,135.37,70.79Z"/><path class="cls-2" d="M136.51,74.17V72.54c0-2.09,1.52-2.09,2-2.09s2,0,2,2.09v1.63c0,2.08-1.52,2.09-2,2.09S136.51,76.26,136.51,74.17Zm.46-1.63v1.63c0,1.4.76,1.59,1.57,1.59s1.57-.19,1.57-1.59V72.54c0-1.4-.76-1.6-1.57-1.6S137,71.14,137,72.54Z"/><path class="cls-2" d="M146.23,75.52V76a.24.24,0,0,1-.23.25.24.24,0,0,1-.24-.25v-.1a3.67,3.67,0,0,1-1.64.35,2,2,0,0,1-1.62-.59,2.24,2.24,0,0,1-.45-1.52V70.69a.25.25,0,0,1,.24-.24.24.24,0,0,1,.24.24v3.46a1.82,1.82,0,0,0,.32,1.19,1.63,1.63,0,0,0,1.27.42,3.13,3.13,0,0,0,1.52-.33l.12-.07V70.69a.24.24,0,0,1,.24-.24.24.24,0,0,1,.23.24v4.83Z"/><path class="cls-2" d="M150.52,70.71a.23.23,0,0,1-.24.23h-.13a3,3,0,0,0-1.52.34l-.12.06V76a.24.24,0,0,1-.24.25A.25.25,0,0,1,148,76V70.69a.24.24,0,0,1,.24-.24.24.24,0,0,1,.24.24v.11a3.51,3.51,0,0,1,1.64-.35h.15A.23.23,0,0,1,150.52,70.71Z"/><path class="cls-2" d="M154.87,76.05a.25.25,0,0,1-.16-.31.23.23,0,0,1,.29-.16,2.69,2.69,0,0,0,2.17-.09.94.94,0,0,0,.35-.79c0-.82-.61-1.08-1.32-1.39s-1.41-.63-1.41-1.54a1.15,1.15,0,0,1,.39-.91,3.14,3.14,0,0,1,2.37-.31.24.24,0,0,1,.2.29.23.23,0,0,1-.27.19,2.71,2.71,0,0,0-2,.21.65.65,0,0,0-.21.53c0,.56.42.78,1.11,1.08s1.6.7,1.6,1.85a1.43,1.43,0,0,1-.52,1.18,2.22,2.22,0,0,1-1.32.38A4.17,4.17,0,0,1,154.87,76.05Z"/><path class="cls-2" d="M159.22,74.17V72.54c0-2.09,1.51-2.09,2-2.09s2,0,2,2.09v1.63c0,2.08-1.52,2.09-2,2.09S159.22,76.26,159.22,74.17Zm.46-1.63v1.63c0,1.4.76,1.59,1.57,1.59s1.56-.19,1.56-1.59V72.54c0-1.4-.76-1.6-1.56-1.6S159.68,71.14,159.68,72.54Z"/><path class="cls-2" d="M167.65,68.17a.25.25,0,0,1-.24.25h0a2.35,2.35,0,0,0-1.59.64,2.06,2.06,0,0,0-.56,1.39h1.62a.24.24,0,0,1,.24.24.25.25,0,0,1-.24.25h-1.64V76a.24.24,0,0,1-.23.25.24.24,0,0,1-.24-.25V70.69h0a2.75,2.75,0,0,1,.72-2,2.85,2.85,0,0,1,1.94-.78A.23.23,0,0,1,167.65,68.17Z"/><path class="cls-2" d="M171.34,76a.25.25,0,0,1-.24.25h0a2.82,2.82,0,0,1-1.92-.79,2.77,2.77,0,0,1-.72-2V68.16a.25.25,0,0,1,.24-.25.24.24,0,0,1,.22.25v2.27h1.66a.25.25,0,0,1,0,.5h-1.66v2.51a2.32,2.32,0,0,0,.59,1.68,2.43,2.43,0,0,0,1.59.63h0A.25.25,0,0,1,171.34,76Z"/><path class="cls-2" d="M177.81,76.1l-1.64-4.69-1.64,4.69a.25.25,0,0,1-.22.16.26.26,0,0,1-.23-.16l-1.86-5.33a.25.25,0,0,1,.15-.31.26.26,0,0,1,.3.14l1.64,4.7L176,70.6a.24.24,0,0,1,.22-.15.25.25,0,0,1,.23.15L178,75.3l1.64-4.7a.26.26,0,0,1,.3-.14.27.27,0,0,1,.15.31l-1.87,5.33a.25.25,0,0,1-.22.16A.26.26,0,0,1,177.81,76.1Z"/><path class="cls-2" d="M185.34,75.14h0V76a.24.24,0,0,1-.23.25.25.25,0,0,1-.24-.25v-.22a2.79,2.79,0,0,1-1.59.47,2.58,2.58,0,0,1-1-.2,1.72,1.72,0,0,1-1-1.71,1.48,1.48,0,0,1,.44-1.13,2.74,2.74,0,0,1,2.14-.54,6.74,6.74,0,0,1,1,.15v-.47a1.5,1.5,0,0,0-.3-1,1.57,1.57,0,0,0-1.21-.38,3.52,3.52,0,0,0-1.27.2.24.24,0,0,1-.31-.13.28.28,0,0,1,.13-.33,4.12,4.12,0,0,1,1.45-.23,2,2,0,0,1,1.55.53,1.91,1.91,0,0,1,.43,1.38v.77h0Zm-.47-.06V73.32a7.4,7.4,0,0,0-1.08-.14,1.83,1.83,0,0,0-.33,0,2.15,2.15,0,0,0-1.45.41,1,1,0,0,0-.28.78,1.22,1.22,0,0,0,.72,1.26,2.12,2.12,0,0,0,.83.15,2.22,2.22,0,0,0,1.41-.44A.72.72,0,0,0,184.87,75.08Z"/><path class="cls-2" d="M189.63,70.71a.23.23,0,0,1-.23.23h-.14a3,3,0,0,0-1.52.34l-.12.06V76a.24.24,0,0,1-.24.25.25.25,0,0,1-.24-.25V70.69a.25.25,0,0,1,.24-.24.24.24,0,0,1,.24.24v.11a3.51,3.51,0,0,1,1.64-.35h.15A.23.23,0,0,1,189.63,70.71Z"/><path class="cls-2" d="M194.79,72.55v.69a.25.25,0,0,1-.24.25h-3.38v.68a1.69,1.69,0,0,0,.34,1.17,1.73,1.73,0,0,0,1.32.42,3.59,3.59,0,0,0,1.36-.22.23.23,0,0,1,.31.13.26.26,0,0,1-.13.33,4.17,4.17,0,0,1-1.54.26,1.87,1.87,0,0,1-2.13-2.09V72.54a2.2,2.2,0,0,1,.47-1.51,2.09,2.09,0,0,1,1.49-.58h0a1.87,1.87,0,0,1,2.13,2.1Zm-.47,0a1.72,1.72,0,0,0-.34-1.18,1.67,1.67,0,0,0-1.3-.43,1.62,1.62,0,0,0-1.17.43,1.69,1.69,0,0,0-.34,1.17V73h3.15Z"/><path class="cls-2" d="M99.73,25.76V59.28H95.39V25.76Z"/><path class="cls-2" d="M123.93,58.1v-4A33.81,33.81,0,0,0,135.32,56Q144,56,144,49.67c0-3.6-2.12-5.39-6.37-5.39h-4.31q-10.53,0-10.53-9.15,0-9.6,13.48-9.6a40.37,40.37,0,0,1,10.9,1.4v4A31,31,0,0,0,136.24,29q-9.15,0-9.14,6.09,0,5.4,6.19,5.4h4.31q10.71,0,10.71,9.14,0,9.84-13,9.84A44,44,0,0,1,123.93,58.1Z"/><path class="cls-2" d="M170.64,59.28V25.76h13.59q10.26,0,10.27,9,0,9.76-14,11.93L179.57,43q10.31-1.53,10.31-8.09,0-5.57-6-5.57H175V59.28Z"/></g></g></svg>