<svg id="Lag_1" data-name="Lag 1" xmlns="http://www.w3.org/2000/svg" viewBox="0 0 489 81.69"><defs><style>.cls-1{isolation:isolate;}.cls-2{fill:#fff;}</style></defs><title>isplogo2</title><g class="cls-1"><path class="cls-2" d="M226.6,60.06a12.38,12.38,0,0,1-5.1-1,16.28,16.28,0,0,1-3.95-2.42l1-1.25A15.91,15.91,0,0,0,222,57.67a10.35,10.35,0,0,0,4.68.94,8.07,8.07,0,0,0,2.76-.44,6,6,0,0,0,2-1.17,5.12,5.12,0,0,0,1.2-1.69,5,5,0,0,0,.41-2,3.94,3.94,0,0,0-.57-2.15A6.35,6.35,0,0,0,231,49.53a9,9,0,0,0-2-1.17c-.74-.31-1.48-.6-2.21-.88-1-.35-1.93-.71-2.88-1.09a13.84,13.84,0,0,1-2.6-1.35,6.74,6.74,0,0,1-1.9-1.9,4.88,4.88,0,0,1-.73-2.73,6.27,6.27,0,0,1,.5-2.47,5.61,5.61,0,0,1,1.48-2.06,7.33,7.33,0,0,1,2.44-1.4,10,10,0,0,1,3.38-.52,10.11,10.11,0,0,1,3.69.7,11.81,11.81,0,0,1,3.18,1.8l-.94,1.24a16.29,16.29,0,0,0-2.65-1.61,7.75,7.75,0,0,0-3.38-.67,8.17,8.17,0,0,0-2.71.41A5.29,5.29,0,0,0,221.81,37a4.8,4.8,0,0,0-1.09,1.56,4.58,4.58,0,0,0-.36,1.79,3.46,3.46,0,0,0,.52,2,5,5,0,0,0,1.37,1.41,11.44,11.44,0,0,0,1.93,1.06c.71.32,1.45.61,2.21.89l3,1.14A12.27,12.27,0,0,1,232,48.13a6.65,6.65,0,0,1,1.92,2,5.62,5.62,0,0,1,.76,3A6.51,6.51,0,0,1,232.6,58a7.4,7.4,0,0,1-2.55,1.51A9.83,9.83,0,0,1,226.6,60.06Z"/><path class="cls-2" d="M249.68,60.06a11,11,0,0,1-4.39-.88,10.62,10.62,0,0,1-3.61-2.57,12.18,12.18,0,0,1-2.45-4.09,15.64,15.64,0,0,1-.88-5.46,15.48,15.48,0,0,1,.91-5.46,13.11,13.11,0,0,1,2.39-4.13,10.4,10.4,0,0,1,3.41-2.6,9.17,9.17,0,0,1,4-.91,8.54,8.54,0,0,1,6.84,2.94q2.52,2.94,2.52,8.5v.81a4.54,4.54,0,0,1-.1.85H240a14.76,14.76,0,0,0,.7,4.61,11.51,11.51,0,0,0,2,3.66,8.81,8.81,0,0,0,3.07,2.42,9.24,9.24,0,0,0,4,.86,10.64,10.64,0,0,0,3.79-.63,12.29,12.29,0,0,0,3.07-1.66l.73,1.35a23.18,23.18,0,0,1-3.15,1.64A11.61,11.61,0,0,1,249.68,60.06ZM240,45.61h16.85c0-3.47-.71-6-2.13-7.7a7.09,7.09,0,0,0-5.67-2.49,7.72,7.72,0,0,0-3.22.7,8.55,8.55,0,0,0-2.79,2,11.14,11.14,0,0,0-2,3.19A13.72,13.72,0,0,0,240,45.61Z"/><path class="cls-2" d="M266.84,60.06a2.3,2.3,0,0,1-1.84-.75,3.91,3.91,0,0,1-.65-2.57V21.9h1.56V57.05c0,1,.34,1.56,1,1.56h.34a2.8,2.8,0,0,0,.59-.11l.32,1.36a3.76,3.76,0,0,1-.6.15A3.94,3.94,0,0,1,266.84,60.06Z"/><path class="cls-2" d="M280.36,59.44,270.9,34.58h1.77l5.92,16.12c.42,1.22.85,2.42,1.31,3.62l1.3,3.46h.2l1.3-3.46c.45-1.2.89-2.4,1.3-3.62l5.93-16.12h1.66l-9.35,24.86Z"/><path class="cls-2" d="M305.43,60.06a9.54,9.54,0,0,1-3.8-.85,18.19,18.19,0,0,1-3.8-2.27h-.1l-.21,2.5h-1.35V21.9h1.56V33l-.1,5a23.19,23.19,0,0,1,4.24-2.86,9.69,9.69,0,0,1,4.6-1.2q5,0,7.51,3.46t2.47,9.23a17,17,0,0,1-.88,5.67,12.78,12.78,0,0,1-2.4,4.21,10.23,10.23,0,0,1-3.5,2.62A10.1,10.1,0,0,1,305.43,60.06Zm.1-1.45a7.92,7.92,0,0,0,3.72-.89,9,9,0,0,0,2.94-2.47,11.46,11.46,0,0,0,1.92-3.79,16.4,16.4,0,0,0,.68-4.81,20.77,20.77,0,0,0-.45-4.45,10,10,0,0,0-1.45-3.56,7.31,7.31,0,0,0-2.63-2.37,8.2,8.2,0,0,0-3.9-.85,9,9,0,0,0-4.13,1.11,21.71,21.71,0,0,0-4.5,3.25v15.4A14.84,14.84,0,0,0,302,57.83,10.31,10.31,0,0,0,305.53,58.61Z"/><path class="cls-2" d="M332.26,60.06a10.93,10.93,0,0,1-4.39-.88,10.66,10.66,0,0,1-3.62-2.57,12.16,12.16,0,0,1-2.44-4.09,17,17,0,0,1,0-10.92,13.5,13.5,0,0,1,2.39-4.13,10.51,10.51,0,0,1,3.41-2.6,9.21,9.21,0,0,1,4-.91,8.54,8.54,0,0,1,6.84,2.94c1.68,2,2.53,4.79,2.53,8.5v.81a3.89,3.89,0,0,1-.11.85h-18.3a14.47,14.47,0,0,0,.7,4.61,11.69,11.69,0,0,0,2,3.66,8.9,8.9,0,0,0,3.07,2.42,9.27,9.27,0,0,0,4,.86,10.7,10.7,0,0,0,3.8-.63,12.47,12.47,0,0,0,3.07-1.66l.73,1.35a23.18,23.18,0,0,1-3.15,1.64A11.64,11.64,0,0,1,332.26,60.06Zm-9.67-14.45h16.84c0-3.47-.71-6-2.13-7.7a7.09,7.09,0,0,0-5.67-2.49,7.76,7.76,0,0,0-3.22.7,8.41,8.41,0,0,0-2.78,2,11.17,11.17,0,0,0-2,3.19A13.72,13.72,0,0,0,322.59,45.61Z"/><path class="cls-2" d="M352.75,60.06a6.7,6.7,0,0,1-2.84-.52,4.49,4.49,0,0,1-1.79-1.45,5.84,5.84,0,0,1-.94-2.26,15.69,15.69,0,0,1-.26-2.94V36H343V34.79l3.95-.21.21-7.28h1.35v7.28h7.39V36h-7.39V53.1a11.82,11.82,0,0,0,.19,2.21,4.8,4.8,0,0,0,.64,1.74,3.23,3.23,0,0,0,1.33,1.14,5,5,0,0,0,2.21.42,5.85,5.85,0,0,0,1.61-.26,16,16,0,0,0,1.62-.57l.51,1.35a16.58,16.58,0,0,1-2.15.67A7.24,7.24,0,0,1,352.75,60.06Z"/><path class="cls-2" d="M357.53,71.61a7.57,7.57,0,0,1-1.61-.18,7.33,7.33,0,0,1-1.41-.45l.42-1.35c.31.11.71.22,1.2.34a6.16,6.16,0,0,0,1.5.18,3.41,3.41,0,0,0,1.77-.41,2.75,2.75,0,0,0,1-1.17,6,6,0,0,0,.5-1.8,19.41,19.41,0,0,0,.13-2.23v-30h1.56V64.74q0,3.6-1.25,5.23A4.54,4.54,0,0,1,357.53,71.61Zm4.37-43.37a1.74,1.74,0,0,1-1.25-.49,1.68,1.68,0,0,1-.52-1.28,1.61,1.61,0,0,1,.52-1.32,2,2,0,0,1,2.5,0,1.64,1.64,0,0,1,.52,1.32,1.72,1.72,0,0,1-.52,1.28A1.76,1.76,0,0,1,361.9,28.24Z"/><path class="cls-2" d="M380.72,60.06a11,11,0,0,1-4.39-.88,10.66,10.66,0,0,1-3.62-2.57,12.16,12.16,0,0,1-2.44-4.09,15.64,15.64,0,0,1-.88-5.46,15.71,15.71,0,0,1,.9-5.46,13.32,13.32,0,0,1,2.4-4.13,10.47,10.47,0,0,1,3.4-2.6,9.25,9.25,0,0,1,4-.91,8.57,8.57,0,0,1,6.84,2.94q2.52,2.94,2.52,8.5v.81a3.89,3.89,0,0,1-.11.85h-18.3a14.47,14.47,0,0,0,.7,4.61,11.51,11.51,0,0,0,2,3.66,8.86,8.86,0,0,0,3.06,2.42,9.28,9.28,0,0,0,4,.86,10.64,10.64,0,0,0,3.79-.63,12.47,12.47,0,0,0,3.07-1.66l.73,1.35a23.18,23.18,0,0,1-3.15,1.64A11.64,11.64,0,0,1,380.72,60.06Zm-9.67-14.45H387.9c0-3.47-.71-6-2.13-7.7a7.12,7.12,0,0,0-5.67-2.49,7.77,7.77,0,0,0-3.23.7,8.51,8.51,0,0,0-2.78,2,11.39,11.39,0,0,0-2,3.19A14,14,0,0,0,371.05,45.61Z"/><path class="cls-2" d="M395.39,59.44V34.58h1.35l.21,4h.1a24.34,24.34,0,0,1,4-3.28,8.39,8.39,0,0,1,4.63-1.3q3.85,0,5.67,2.29c1.21,1.52,1.82,3.92,1.82,7.17v16h-1.56V43.63q0-4.16-1.4-6.19t-4.63-2a7.81,7.81,0,0,0-4.29,1.24A24.85,24.85,0,0,0,397,40.41v19Z"/><path class="cls-2" d="M422.53,28.24a1.74,1.74,0,0,1-1.25-.49,1.68,1.68,0,0,1-.52-1.28,1.61,1.61,0,0,1,.52-1.32,2,2,0,0,1,2.5,0,1.64,1.64,0,0,1,.52,1.32,1.72,1.72,0,0,1-.52,1.28A1.76,1.76,0,0,1,422.53,28.24Zm-.83,31.2V34.58h1.56V59.44Z"/><path class="cls-2" d="M432.2,59.44V34.58h1.35l.21,4h.1a24.39,24.39,0,0,1,4-3.28A8.35,8.35,0,0,1,442.5,34q3.84,0,5.66,2.29c1.22,1.52,1.82,3.92,1.82,7.17v16h-1.56V43.63c0-2.77-.46-4.83-1.4-6.19s-2.48-2-4.63-2a7.81,7.81,0,0,0-4.29,1.24,24.85,24.85,0,0,0-4.34,3.75v19Z"/><path class="cls-2" d="M466.52,71.61q-4.78,0-7.49-1.93a5.91,5.91,0,0,1-2.7-5,6.16,6.16,0,0,1,1-3.28,10.68,10.68,0,0,1,2.73-2.86v-.2a4.84,4.84,0,0,1-1.56-1.56,4.46,4.46,0,0,1-.62-2.4,4.32,4.32,0,0,1,1-2.86,10.53,10.53,0,0,1,1.74-1.71v-.21a9.88,9.88,0,0,1-2.16-2.81,8.36,8.36,0,0,1-1-4,9.11,9.11,0,0,1,.65-3.46,8.25,8.25,0,0,1,1.82-2.76,8.73,8.73,0,0,1,2.71-1.84A8.22,8.22,0,0,1,466,34a8.6,8.6,0,0,1,1.85.18,7.37,7.37,0,0,1,1.37.44h8.32V36h-6a8.13,8.13,0,0,1,2.19,2.81,8.74,8.74,0,0,1,.83,3.85,9.29,9.29,0,0,1-.65,3.48A8.73,8.73,0,0,1,472.06,49a8.46,8.46,0,0,1-2.73,1.87,8.3,8.3,0,0,1-3.33.68,9.31,9.31,0,0,1-2.24-.29,6.59,6.59,0,0,1-2-.86A9.34,9.34,0,0,0,460.2,52a4.08,4.08,0,0,0-.41,3.59,2.51,2.51,0,0,0,.78,1.09,3.6,3.6,0,0,0,1.48.73,8.83,8.83,0,0,0,2.39.26H470q4.16,0,6.09,1.35A4.88,4.88,0,0,1,478,63.29a6.44,6.44,0,0,1-.81,3.07A8.56,8.56,0,0,1,474.87,69a11.78,11.78,0,0,1-3.62,1.88A15.3,15.3,0,0,1,466.52,71.61Zm.1-1.46a12.64,12.64,0,0,0,4-.6A10.62,10.62,0,0,0,473.7,68a6.75,6.75,0,0,0,1.92-2.16,5,5,0,0,0,.67-2.47,3.38,3.38,0,0,0-1.53-3.12,8.78,8.78,0,0,0-4.5-.93h-5.72c-.17,0-.54,0-1.12-.08a12.67,12.67,0,0,1-1.89-.34,8.26,8.26,0,0,0-2.71,2.73,5.94,5.94,0,0,0-.83,2.89,4.75,4.75,0,0,0,2.24,4A11.09,11.09,0,0,0,466.62,70.15ZM466,50.08a6.32,6.32,0,0,0,2.6-.55,6.74,6.74,0,0,0,2.18-1.5,7.33,7.33,0,0,0,1.51-2.32,7.65,7.65,0,0,0,.57-3,8.08,8.08,0,0,0-.54-3,6.88,6.88,0,0,0-1.49-2.29,6.6,6.6,0,0,0-2.18-1.45,6.91,6.91,0,0,0-7.49,1.45,6.86,6.86,0,0,0-1.48,2.29,8.08,8.08,0,0,0-.54,3,7.65,7.65,0,0,0,.57,3,7.48,7.48,0,0,0,1.5,2.32,6.89,6.89,0,0,0,2.19,1.5A6.32,6.32,0,0,0,466,50.08Z"/></g><path class="cls-2" d="M40.84,81.69A40.85,40.85,0,1,1,81.69,40.84,40.85,40.85,0,0,1,40.84,81.69Zm0-79A38.15,38.15,0,1,0,79,40.84,38.15,38.15,0,0,0,40.84,2.69Z"/><polygon class="cls-2" points="26.83 15.77 27.83 21.13 22.32 21.13 22.32 15.77 26.83 15.77"/><rect class="cls-2" x="22.32" y="27.4" width="5.51" height="32.11"/><path class="cls-2" d="M37.36,22.2h3.46L42,27.4h8.46V32h-7.6V50.43q0,4.49,3.78,4.49h3.82v4.59H45.22q-7.86,0-7.86-8.66Z"/><path class="cls-2" d="M63.27,22.2V59.51H57.76V22.2Z"/><path class="cls-2" d="M95,76.05a.26.26,0,0,1-.16-.31.24.24,0,0,1,.3-.16h0a2.67,2.67,0,0,0,2.16-.09.92.92,0,0,0,.35-.79c0-.82-.61-1.08-1.32-1.39s-1.41-.63-1.41-1.54a1.16,1.16,0,0,1,.39-.91,3.19,3.19,0,0,1,2.38-.31.23.23,0,0,1,.19.28h0a.21.21,0,0,1-.24.19h0a2.73,2.73,0,0,0-2,.21.62.62,0,0,0-.21.53c0,.56.42.78,1.12,1.08s1.59.7,1.59,1.85a1.45,1.45,0,0,1-.52,1.18,2.21,2.21,0,0,1-1.32.38A3.93,3.93,0,0,1,95,76.05Z"/><path class="cls-2" d="M103.43,72.55v.69a.26.26,0,0,1-.24.25H99.81v.68a1.69,1.69,0,0,0,.34,1.17,1.72,1.72,0,0,0,1.32.42,3.5,3.5,0,0,0,1.36-.22.22.22,0,0,1,.3.12h0A.26.26,0,0,1,103,76a4.23,4.23,0,0,1-1.54.26,1.88,1.88,0,0,1-2.13-1.57,2.26,2.26,0,0,1,0-.52V72.54A2.19,2.19,0,0,1,99.81,71a2.12,2.12,0,0,1,1.49-.58h0A1.88,1.88,0,0,1,103.43,72a2.35,2.35,0,0,1,0,.53Zm-.47,0a1.73,1.73,0,0,0-.34-1.18,1.68,1.68,0,0,0-1.3-.43,1.64,1.64,0,0,0-1.17.43,1.69,1.69,0,0,0-.34,1.17V73H103Z"/><path class="cls-2" d="M107.72,70.71a.23.23,0,0,1-.23.23h-.15a3,3,0,0,0-1.51.34l-.13.06V76a.24.24,0,0,1-.23.25h0a.26.26,0,0,1-.24-.25V70.69a.24.24,0,0,1,.24-.24.23.23,0,0,1,.23.23h0v.11a3.44,3.44,0,0,1,1.64-.35h.15a.23.23,0,0,1,.23.23Z"/><path class="cls-2" d="M110.46,76.1l-1.91-5.31a.28.28,0,0,1,.14-.33.25.25,0,0,1,.31.14l1.69,4.71,1.69-4.71a.25.25,0,0,1,.31-.14.28.28,0,0,1,.14.33l-1.92,5.31a.27.27,0,0,1-.22.16A.26.26,0,0,1,110.46,76.1Z"/><path class="cls-2" d="M115,68.77a.37.37,0,0,1-.35.36.35.35,0,0,1-.33-.36.33.33,0,0,1,.31-.35h0A.35.35,0,0,1,115,68.77Zm-.11,1.92V76a.24.24,0,0,1-.23.25h0a.24.24,0,0,1-.22-.25V70.69a.23.23,0,0,1,.22-.24h0a.24.24,0,0,1,.19.24Z"/><path class="cls-2" d="M116.44,73.36c0-2.61,1.72-2.9,2.46-2.9a3.33,3.33,0,0,1,1.43.25.23.23,0,0,1,.13.3v0a.23.23,0,0,1-.3.13h0a3.52,3.52,0,0,0-1.25-.2c-.74,0-2,.31-2,2.4s1.25,2.4,2,2.4a3.52,3.52,0,0,0,1.25-.2.22.22,0,0,1,.29.11v0a.24.24,0,0,1-.12.32h0a3.88,3.88,0,0,1-1.43.25C118.16,76.26,116.44,76,116.44,73.36Z"/><path class="cls-2" d="M126.05,72.55v.69a.26.26,0,0,1-.24.25h-3.38v.68a1.38,1.38,0,0,0,1.65,1.59,3.55,3.55,0,0,0,1.37-.22.22.22,0,0,1,.3.12h0a.26.26,0,0,1-.13.33,4.32,4.32,0,0,1-1.55.26,2.11,2.11,0,0,1-1.65-.59,2.14,2.14,0,0,1-.47-1.5V72.54a2.18,2.18,0,0,1,.47-1.51,2.12,2.12,0,0,1,1.49-.58h0A1.88,1.88,0,0,1,126.05,72,2.35,2.35,0,0,1,126.05,72.55Zm-.47,0a1.78,1.78,0,0,0-.34-1.18,1.68,1.68,0,0,0-1.3-.43,1.64,1.64,0,0,0-1.17.43,1.69,1.69,0,0,0-.34,1.17V73h3.15Z"/><path class="cls-2" d="M135.37,70.79l-2.58,6.74c-.5,1.16-1.57,1.72-3.28,1.72a.24.24,0,0,1-.23-.25h0a.23.23,0,0,1,.23-.23c2,0,2.58-.82,2.84-1.43l.56-1.45h0l-2-5.08a.25.25,0,0,1,.12-.32.22.22,0,0,1,.29.11v0l1.88,4.64L135,70.62a.24.24,0,0,1,.3-.14h0A.25.25,0,0,1,135.37,70.79Z"/><path class="cls-2" d="M136.51,74.17V72.54c0-2.09,1.52-2.09,2-2.09s2,0,2,2.09v1.63c0,2.08-1.52,2.09-2,2.09S136.51,76.26,136.51,74.17Zm.46-1.63v1.63c0,1.4.76,1.59,1.57,1.59s1.57-.19,1.57-1.59V72.54c0-1.4-.76-1.6-1.57-1.6s-1.54.2-1.54,1.6Z"/><path class="cls-2" d="M146.23,75.52V76a.24.24,0,0,1-.23.25h0a.24.24,0,0,1-.24-.24h0v-.1a3.7,3.7,0,0,1-1.64.35,2,2,0,0,1-1.62-.59,2.24,2.24,0,0,1-.45-1.52V70.69a.26.26,0,0,1,.24-.24.24.24,0,0,1,.24.24h0v3.46a1.87,1.87,0,0,0,.32,1.19,1.61,1.61,0,0,0,1.27.42,3.07,3.07,0,0,0,1.52-.33l.12-.07V70.69a.24.24,0,0,1,.24-.24h0a.24.24,0,0,1,.23.24v4.83Z"/><path class="cls-2" d="M150.52,70.71a.23.23,0,0,1-.23.23h-.14a3,3,0,0,0-1.52.34l-.12.06V76a.24.24,0,0,1-.23.25h0A.25.25,0,0,1,148,76V70.69a.24.24,0,0,1,.24-.24h0a.24.24,0,0,1,.24.24h0v.11a3.44,3.44,0,0,1,1.64-.35h.15a.23.23,0,0,1,.25.21Z"/><path class="cls-2" d="M154.87,76.05a.25.25,0,0,1-.16-.31.22.22,0,0,1,.28-.16h0a2.69,2.69,0,0,0,2.17-.09.93.93,0,0,0,.35-.79c0-.82-.61-1.08-1.32-1.39s-1.41-.63-1.41-1.54a1.16,1.16,0,0,1,.39-.91,3.16,3.16,0,0,1,2.37-.31.24.24,0,0,1,.2.27v0a.23.23,0,0,1-.26.19h0a2.73,2.73,0,0,0-2,.21.62.62,0,0,0-.21.53c0,.56.42.78,1.11,1.08s1.6.7,1.6,1.85a1.45,1.45,0,0,1-.52,1.18,2.21,2.21,0,0,1-1.32.38A3.93,3.93,0,0,1,154.87,76.05Z"/><path class="cls-2" d="M159.22,74.17V72.54c0-2.09,1.51-2.09,2-2.09s2,0,2,2.09v1.63c0,2.08-1.52,2.09-2,2.09S159.22,76.26,159.22,74.17Zm.46-1.63v1.63c0,1.4.76,1.59,1.57,1.59s1.56-.19,1.56-1.59V72.54c0-1.4-.76-1.6-1.56-1.6s-1.57.2-1.57,1.6Z"/><path class="cls-2" d="M167.65,68.17a.26.26,0,0,1-.24.25h0a2.35,2.35,0,0,0-1.59.64,2.1,2.1,0,0,0-.56,1.39h1.62a.24.24,0,0,1,.24.24h0a.26.26,0,0,1-.24.25h-1.64V76a.24.24,0,0,1-.23.25h0a.24.24,0,0,1-.24-.24h0V70.69h0a2.72,2.72,0,0,1,.72-2,2.81,2.81,0,0,1,1.94-.78.22.22,0,0,1,.22.24Z"/><path class="cls-2" d="M171.34,76a.26.26,0,0,1-.24.25h0a2.81,2.81,0,0,1-1.92-.79,2.72,2.72,0,0,1-.72-2v-5.3a.26.26,0,0,1,.24-.25.24.24,0,0,1,.22.25v2.27h1.66a.25.25,0,0,1,0,.5h-1.66v2.51a2.35,2.35,0,0,0,.59,1.68,2.41,2.41,0,0,0,1.59.63h0A.26.26,0,0,1,171.34,76Z"/><path class="cls-2" d="M177.81,76.1l-1.64-4.69-1.64,4.69a.27.27,0,0,1-.22.16.26.26,0,0,1-.23-.16l-1.86-5.33a.25.25,0,0,1,.15-.31.26.26,0,0,1,.3.14l1.64,4.7L176,70.6a.24.24,0,0,1,.22-.15.25.25,0,0,1,.23.15L178,75.3l1.64-4.7a.24.24,0,0,1,.45.17l-1.87,5.33a.27.27,0,0,1-.22.16A.26.26,0,0,1,177.81,76.1Z"/><path class="cls-2" d="M185.34,75.14h0V76a.24.24,0,0,1-.23.25h0a.26.26,0,0,1-.24-.25v-.22a2.8,2.8,0,0,1-1.59.47,2.66,2.66,0,0,1-1-.2,1.73,1.73,0,0,1-1-1.71,1.5,1.5,0,0,1,.44-1.13,2.74,2.74,0,0,1,2.14-.54,6.7,6.7,0,0,1,1,.15v-.47a1.5,1.5,0,0,0-.3-1,1.57,1.57,0,0,0-1.21-.38,3.67,3.67,0,0,0-1.27.2.24.24,0,0,1-.31-.13.28.28,0,0,1,.13-.33,4.23,4.23,0,0,1,1.45-.23,2,2,0,0,1,1.55.53,1.92,1.92,0,0,1,.43,1.38v.77h0Zm-.47-.06V73.32a8,8,0,0,0-1.08-.14,1.82,1.82,0,0,0-.33,0,2.15,2.15,0,0,0-1.45.41,1,1,0,0,0-.28.78,1.23,1.23,0,0,0,.72,1.26,2,2,0,0,0,.83.15,2.23,2.23,0,0,0,1.41-.44A.68.68,0,0,0,184.87,75.08Z"/><path class="cls-2" d="M189.63,70.71a.23.23,0,0,1-.23.23h-.14a3,3,0,0,0-1.52.34l-.12.06V76a.24.24,0,0,1-.23.25h0a.26.26,0,0,1-.24-.25V70.69a.26.26,0,0,1,.24-.24.24.24,0,0,1,.24.24h0v.11a3.44,3.44,0,0,1,1.64-.35h.15a.22.22,0,0,1,.22.24Z"/><path class="cls-2" d="M194.79,72.55v.69a.26.26,0,0,1-.24.25h-3.38v.68a1.69,1.69,0,0,0,.34,1.17,1.72,1.72,0,0,0,1.32.42,3.5,3.5,0,0,0,1.36-.22.22.22,0,0,1,.3.12h0a.26.26,0,0,1-.13.33,4.23,4.23,0,0,1-1.54.26,1.88,1.88,0,0,1-2.13-1.57,2.26,2.26,0,0,1,0-.52V72.54a2.18,2.18,0,0,1,.47-1.51,2.12,2.12,0,0,1,1.49-.58h0A1.88,1.88,0,0,1,194.79,72,2.35,2.35,0,0,1,194.79,72.55Zm-.47,0a1.73,1.73,0,0,0-.34-1.18,1.68,1.68,0,0,0-1.3-.43,1.64,1.64,0,0,0-1.17.43,1.69,1.69,0,0,0-.34,1.17V73h3.15Z"/><path class="cls-2" d="M99.73,25.76V59.28H95.39V25.76Z"/><path class="cls-2" d="M123.93,58.1v-4A34,34,0,0,0,135.32,56Q144,56,144,49.67c0-3.6-2.12-5.39-6.37-5.39h-4.31q-10.53,0-10.53-9.15,0-9.6,13.48-9.6a40.5,40.5,0,0,1,10.9,1.4v4A30.9,30.9,0,0,0,136.24,29q-9.15,0-9.14,6.09,0,5.4,6.19,5.4h4.31q10.71,0,10.71,9.14,0,9.84-13,9.84A44.1,44.1,0,0,1,123.93,58.1Z"/><path class="cls-2" d="M170.64,59.28V25.76h13.59q10.26,0,10.27,9,0,9.77-14,11.93L179.57,43q10.31-1.53,10.31-8.09,0-5.56-6-5.57H175V59.28Z"/></svg>