<svg id="Lag_1" data-name="Lag 1" xmlns="http://www.w3.org/2000/svg" viewBox="0 0 512 512"><defs><style>.cls-1{fill:#7b7b7b;}</style></defs><title>key-grey</title><path class="cls-1" d="M336,32a144,144,0,1,1-53.66,277.66L240,352H192v64H128v64H32V400L202.34,229.66A144.07,144.07,0,0,1,336,32m0-32A176.12,176.12,0,0,0,165.8,221L7,379.72a24,24,0,0,0-7,17V488a24,24,0,0,0,24,24H136a24,24,0,0,0,24-24V448h40a24,24,0,0,0,24-24V384h19.31a24,24,0,0,0,17-7l30.76-30.77A176,176,0,1,0,336,0Zm48,108a20,20,0,1,1-20,20,20,20,0,0,1,20-20m0-28a48,48,0,1,0,48,48A48,48,0,0,0,384,80Z"/></svg>