<svg id="Lag_1" data-name="Lag 1" xmlns="http://www.w3.org/2000/svg" viewBox="0 0 512 512"><defs><style>.cls-1{fill:#7b7b7b;}</style></defs><title>plus-circle-grey</title><path class="cls-1" d="M384,250v12a12,12,0,0,1-12,12H274v98a12,12,0,0,1-12,12H250a12,12,0,0,1-12-12V274H140a12,12,0,0,1-12-12V250a12,12,0,0,1,12-12h98V140a12,12,0,0,1,12-12h12a12,12,0,0,1,12,12v98h98A12,12,0,0,1,384,250Zm120,6c0,137-111,248-248,248S8,393,8,256,119,8,256,8,504,119,504,256Zm-32,0c0-119.9-97.3-216-216-216C136.1,40,40,137.3,40,256c0,119.9,97.3,216,216,216C375.9,472,472,374.7,472,256Z"/></svg>