<svg id="Lag_1" data-name="Lag 1" xmlns="http://www.w3.org/2000/svg" viewBox="0 0 58.5 52"><defs><style>.cls-1{fill:#e8a705;}</style></defs><title>triangle</title><path class="cls-1" d="M56.62,43.89a4.67,4.67,0,0,1-4,7H5.92a4.67,4.67,0,0,1-4-7L25.21,3.44a4.67,4.67,0,0,1,8.08,0L56.62,43.89ZM29.25,35.53A4.47,4.47,0,1,0,33.72,40,4.47,4.47,0,0,0,29.25,35.53ZM25,19.45l.73,13.22a1.16,1.16,0,0,0,1.16,1.11h4.72a1.16,1.16,0,0,0,1.16-1.11l.73-13.22a1.17,1.17,0,0,0-1.17-1.23H26.17A1.17,1.17,0,0,0,25,19.45Z"/></svg>